<svg width="518" height="115" viewBox="0 0 518 115" fill="none" xmlns="http://www.w3.org/2000/svg">
<path d="M26.824 96.592C30.76 96.592 33.544 96.208 35.176 95.44C36.808 94.672 37.624 93.184 37.624 90.976C37.624 89.248 36.568 87.76 34.456 86.512C32.344 85.168 29.128 83.68 24.808 82.048C21.448 80.8 18.376 79.504 15.592 78.16C12.904 76.816 10.6 75.232 8.68 73.408C6.76 71.488 5.272 69.232 4.216 66.64C3.16 64.048 2.632 60.928 2.632 57.28C2.632 50.176 5.272 44.56 10.552 40.432C15.832 36.304 23.08 34.24 32.296 34.24C36.904 34.24 41.32 34.672 45.544 35.536C49.768 36.304 53.128 37.168 55.624 38.128L51.88 54.832C49.384 53.968 46.648 53.2 43.672 52.528C40.792 51.856 37.528 51.52 33.88 51.52C27.16 51.52 23.8 53.392 23.8 57.136C23.8 58 23.944 58.768 24.232 59.44C24.52 60.112 25.096 60.784 25.96 61.456C26.824 62.032 27.976 62.704 29.416 63.472C30.952 64.144 32.872 64.912 35.176 65.776C39.88 67.504 43.768 69.232 46.84 70.96C49.912 72.592 52.312 74.416 54.04 76.432C55.864 78.352 57.112 80.512 57.784 82.912C58.552 85.312 58.936 88.096 58.936 91.264C58.936 98.752 56.104 104.416 50.44 108.256C44.872 112.096 36.952 114.016 26.68 114.016C19.96 114.016 14.344 113.44 9.832 112.288C5.416 111.136 2.344 110.176 0.616 109.408L4.216 91.984C7.864 93.424 11.608 94.576 15.448 95.44C19.288 96.208 23.08 96.592 26.824 96.592ZM103.915 97.024C106.027 97.024 108.043 96.976 109.963 96.88C111.883 96.784 113.419 96.64 114.571 96.448V80.176C113.707 79.984 112.411 79.792 110.683 79.6C108.955 79.408 107.371 79.312 105.931 79.312C103.915 79.312 101.995 79.456 100.171 79.744C98.4426 79.936 96.9066 80.368 95.5626 81.04C94.2186 81.712 93.1626 82.624 92.3946 83.776C91.6266 84.928 91.2426 86.368 91.2426 88.096C91.2426 91.456 92.3466 93.808 94.5546 95.152C96.8586 96.4 99.9786 97.024 103.915 97.024ZM102.187 34.24C108.523 34.24 113.803 34.96 118.027 36.4C122.251 37.84 125.611 39.904 128.107 42.592C130.699 45.28 132.523 48.544 133.579 52.384C134.635 56.224 135.163 60.496 135.163 65.2V109.84C132.091 110.512 127.819 111.28 122.347 112.144C116.875 113.104 110.251 113.584 102.475 113.584C97.5786 113.584 93.1146 113.152 89.0826 112.288C85.1466 111.424 81.7386 110.032 78.8586 108.112C75.9786 106.096 73.7706 103.504 72.2346 100.336C70.6986 97.168 69.9306 93.28 69.9306 88.672C69.9306 84.256 70.7946 80.512 72.5226 77.44C74.3466 74.368 76.7466 71.92 79.7226 70.096C82.6986 68.272 86.1066 66.976 89.9466 66.208C93.7866 65.344 97.7706 64.912 101.899 64.912C104.683 64.912 107.131 65.056 109.243 65.344C111.451 65.536 113.227 65.824 114.571 66.208V64.192C114.571 60.544 113.467 57.616 111.259 55.408C109.051 53.2 105.211 52.096 99.7386 52.096C96.0906 52.096 92.4906 52.384 88.9386 52.96C85.3866 53.44 82.3146 54.16 79.7226 55.12L76.9866 37.84C78.2346 37.456 79.7706 37.072 81.5946 36.688C83.5146 36.208 85.5786 35.824 87.7866 35.536C89.9946 35.152 92.2986 34.864 94.6986 34.672C97.1946 34.384 99.6906 34.24 102.187 34.24ZM187.396 0.255997C191.428 0.255997 195.124 0.687997 198.484 1.552C201.844 2.31999 204.436 3.08799 206.26 3.85599L202.084 20.992C200.164 20.128 198.052 19.504 195.748 19.12C193.54 18.64 191.476 18.4 189.556 18.4C186.964 18.4 184.756 18.784 182.932 19.552C181.204 20.224 179.812 21.184 178.756 22.432C177.796 23.68 177.076 25.168 176.596 26.896C176.212 28.624 176.02 30.496 176.02 32.512V36.256H202.516V54.112H176.02V112H154.564V32.224C154.564 22.432 157.3 14.656 162.772 8.896C168.34 3.136 176.548 0.255997 187.396 0.255997ZM210.589 74.704C210.589 67.984 211.597 62.128 213.613 57.136C215.725 52.048 218.461 47.824 221.821 44.464C225.181 41.104 229.021 38.56 233.341 36.832C237.757 35.104 242.269 34.24 246.877 34.24C257.629 34.24 266.125 37.552 272.365 44.176C278.605 50.704 281.725 60.352 281.725 73.12C281.725 74.368 281.677 75.76 281.581 77.296C281.485 78.736 281.389 80.032 281.293 81.184H232.621C233.101 85.6 235.165 89.104 238.813 91.696C242.461 94.288 247.357 95.584 253.501 95.584C257.437 95.584 261.277 95.248 265.021 94.576C268.861 93.808 271.981 92.896 274.381 91.84L277.261 109.264C276.109 109.84 274.573 110.416 272.653 110.992C270.733 111.568 268.573 112.048 266.173 112.432C263.869 112.912 261.373 113.296 258.685 113.584C255.997 113.872 253.309 114.016 250.621 114.016C243.805 114.016 237.853 113.008 232.765 110.992C227.773 108.976 223.597 106.24 220.237 102.784C216.973 99.232 214.525 95.056 212.893 90.256C211.357 85.456 210.589 80.272 210.589 74.704ZM260.989 66.496C260.893 64.672 260.557 62.896 259.981 61.168C259.501 59.44 258.685 57.904 257.533 56.56C256.477 55.216 255.085 54.112 253.357 53.248C251.725 52.384 249.661 51.952 247.165 51.952C244.765 51.952 242.701 52.384 240.973 53.248C239.245 54.016 237.805 55.072 236.653 56.416C235.501 57.76 234.589 59.344 233.917 61.168C233.341 62.896 232.909 64.672 232.621 66.496H260.989ZM294.683 74.128C294.683 68.656 295.547 63.52 297.275 58.72C299.099 53.824 301.691 49.6 305.051 46.048C308.411 42.4 312.491 39.52 317.291 37.408C322.091 35.296 327.563 34.24 333.707 34.24C337.739 34.24 341.435 34.624 344.795 35.392C348.155 36.064 351.419 37.072 354.587 38.416L350.123 55.552C348.107 54.784 345.899 54.112 343.499 53.536C341.099 52.96 338.411 52.672 335.435 52.672C329.099 52.672 324.347 54.64 321.179 58.576C318.107 62.512 316.571 67.696 316.571 74.128C316.571 80.944 318.011 86.224 320.891 89.968C323.867 93.712 329.003 95.584 336.299 95.584C338.891 95.584 341.675 95.344 344.651 94.864C347.627 94.384 350.363 93.616 352.859 92.56L355.883 110.128C353.387 111.184 350.267 112.096 346.523 112.864C342.779 113.632 338.651 114.016 334.139 114.016C327.227 114.016 321.275 113.008 316.283 110.992C311.291 108.88 307.163 106.048 303.899 102.496C300.731 98.944 298.379 94.768 296.843 89.968C295.403 85.072 294.683 79.792 294.683 74.128ZM363.027 74.704C363.027 67.984 364.035 62.128 366.051 57.136C368.163 52.048 370.899 47.824 374.259 44.464C377.619 41.104 381.459 38.56 385.779 36.832C390.195 35.104 394.707 34.24 399.315 34.24C410.067 34.24 418.563 37.552 424.803 44.176C431.043 50.704 434.163 60.352 434.163 73.12C434.163 74.368 434.115 75.76 434.019 77.296C433.923 78.736 433.827 80.032 433.731 81.184H385.059C385.539 85.6 387.603 89.104 391.251 91.696C394.899 94.288 399.795 95.584 405.939 95.584C409.875 95.584 413.715 95.248 417.459 94.576C421.299 93.808 424.419 92.896 426.819 91.84L429.699 109.264C428.547 109.84 427.011 110.416 425.091 110.992C423.171 111.568 421.011 112.048 418.611 112.432C416.307 112.912 413.811 113.296 411.123 113.584C408.435 113.872 405.747 114.016 403.059 114.016C396.243 114.016 390.291 113.008 385.203 110.992C380.211 108.976 376.035 106.24 372.675 102.784C369.411 99.232 366.963 95.056 365.331 90.256C363.795 85.456 363.027 80.272 363.027 74.704ZM413.427 66.496C413.331 64.672 412.995 62.896 412.419 61.168C411.939 59.44 411.123 57.904 409.971 56.56C408.915 55.216 407.523 54.112 405.795 53.248C404.163 52.384 402.099 51.952 399.603 51.952C397.203 51.952 395.139 52.384 393.411 53.248C391.683 54.016 390.243 55.072 389.091 56.416C387.939 57.76 387.027 59.344 386.355 61.168C385.779 62.896 385.347 64.672 385.059 66.496H413.427ZM469.009 73.552C469.009 80.176 470.497 85.504 473.473 89.536C476.449 93.568 480.865 95.584 486.721 95.584C488.641 95.584 490.417 95.536 492.049 95.44C493.681 95.248 495.025 95.056 496.081 94.864V55.84C494.737 54.976 492.961 54.256 490.753 53.68C488.641 53.104 486.481 52.816 484.273 52.816C474.097 52.816 469.009 59.728 469.009 73.552ZM517.537 109.552C515.617 110.128 513.409 110.704 510.913 111.28C508.417 111.76 505.777 112.192 502.993 112.576C500.305 112.96 497.521 113.248 494.641 113.44C491.857 113.728 489.169 113.872 486.577 113.872C480.337 113.872 474.769 112.96 469.873 111.136C464.977 109.312 460.849 106.72 457.489 103.36C454.129 99.904 451.537 95.776 449.713 90.976C447.985 86.08 447.121 80.608 447.121 74.56C447.121 68.416 447.889 62.896 449.425 58C450.961 53.008 453.169 48.784 456.049 45.328C458.929 41.872 462.433 39.232 466.561 37.408C470.785 35.584 475.585 34.672 480.961 34.672C483.937 34.672 486.577 34.96 488.881 35.536C491.281 36.112 493.681 36.928 496.081 37.984V3.712L517.537 0.255997V109.552Z" fill="#007BFF"/>
</svg>
