<svg width="1404" height="210" viewBox="0 0 1404 210" fill="none" xmlns="http://www.w3.org/2000/svg">
<path d="M164.64 105.064C164.64 122.344 161.952 137.416 156.576 150.28C151.2 162.952 143.616 173.512 133.824 181.96C124.032 190.216 112.32 196.456 98.688 200.68C85.056 204.712 70.08 206.728 53.76 206.728C45.696 206.728 36.768 206.344 26.976 205.576C17.376 205 8.64 203.752 0.768001 201.832V8.29599C8.64 6.37599 17.376 5.12799 26.976 4.55199C36.768 3.78399 45.696 3.39999 53.76 3.39999C70.08 3.39999 85.056 5.51199 98.688 9.73599C112.32 13.768 124.032 20.008 133.824 28.456C143.616 36.712 151.2 47.272 156.576 60.136C161.952 72.808 164.64 87.784 164.64 105.064ZM56.064 182.248C82.56 182.248 102.336 175.528 115.392 162.088C128.448 148.456 134.976 129.448 134.976 105.064C134.976 80.68 128.448 61.768 115.392 48.328C102.336 34.696 82.56 27.88 56.064 27.88C48.192 27.88 42.048 27.976 37.632 28.168C33.408 28.36 30.432 28.552 28.704 28.744V181.384C30.432 181.576 33.408 181.768 37.632 181.96C42.048 182.152 48.192 182.248 56.064 182.248ZM206.081 205V5.41599H327.905V29.32H234.017V88.648H317.537V111.976H234.017V181.096H335.105V205H206.081ZM531.892 5.41599C524.596 26.536 517.588 46.12 510.868 64.168C504.34 82.024 497.908 99.016 491.572 115.144C485.236 131.272 478.9 146.728 472.564 161.512C466.42 176.104 460.084 190.6 453.556 205H427.348C420.82 190.6 414.388 176.104 408.052 161.512C401.908 146.728 395.572 131.272 389.044 115.144C382.708 99.016 376.18 82.024 369.46 64.168C362.74 46.12 355.828 26.536 348.724 5.41599H379.54C389.908 35.752 400.084 64.936 410.068 92.968C420.052 121 430.324 147.304 440.884 171.88C451.444 147.496 461.716 121.288 471.7 93.256C481.684 65.032 491.764 35.752 501.94 5.41599H531.892ZM605.98 185.128C635.164 185.128 649.756 175.144 649.756 155.176C649.756 149.032 648.412 143.848 645.724 139.624C643.228 135.208 639.772 131.464 635.356 128.392C630.94 125.128 625.852 122.344 620.092 120.04C614.524 117.736 608.572 115.432 602.236 113.128C594.94 110.632 588.028 107.848 581.5 104.776C574.972 101.512 569.308 97.768 564.508 93.544C559.708 89.128 555.868 83.944 552.988 77.992C550.3 72.04 548.956 64.84 548.956 56.392C548.956 38.92 554.908 25.288 566.812 15.496C578.716 5.70399 595.132 0.807985 616.06 0.807985C628.156 0.807985 639.1 2.15199 648.892 4.83998C658.876 7.33599 666.172 10.12 670.78 13.192L661.852 35.944C657.82 33.448 651.772 31.048 643.708 28.744C635.836 26.248 626.62 25 616.06 25C610.684 25 605.692 25.576 601.084 26.728C596.476 27.88 592.444 29.608 588.988 31.912C585.532 34.216 582.748 37.192 580.636 40.84C578.716 44.296 577.756 48.424 577.756 53.224C577.756 58.6 578.812 63.112 580.924 66.76C583.036 70.408 586.012 73.672 589.852 76.552C593.692 79.24 598.108 81.736 603.1 84.04C608.284 86.344 613.948 88.648 620.092 90.952C628.732 94.408 636.604 97.864 643.708 101.32C651.004 104.776 657.244 108.904 662.428 113.704C667.804 118.504 671.932 124.264 674.812 130.984C677.692 137.512 679.132 145.48 679.132 154.888C679.132 172.36 672.7 185.8 659.836 195.208C647.164 204.616 629.212 209.32 605.98 209.32C598.108 209.32 590.812 208.744 584.092 207.592C577.564 206.632 571.708 205.48 566.524 204.136C561.34 202.6 556.828 201.064 552.988 199.528C549.34 197.8 546.46 196.36 544.348 195.208L552.7 172.168C557.116 174.664 563.836 177.448 572.86 180.52C581.884 183.592 592.924 185.128 605.98 185.128ZM839.613 27.592C835.197 32.584 830.013 38.632 824.061 45.736C818.301 52.648 812.157 60.424 805.629 69.064C799.101 77.512 792.381 86.536 785.469 96.136C778.557 105.544 771.741 115.144 765.021 124.936C758.493 134.536 752.253 144.136 746.301 153.736C740.349 163.336 734.973 172.456 730.173 181.096H842.493V205H697.629V186.28C701.661 178.6 706.365 170.152 711.741 160.936C717.309 151.72 723.165 142.312 729.309 132.712C735.645 123.112 742.173 113.416 748.893 103.624C755.613 93.832 762.237 84.424 768.765 75.4C775.485 66.376 781.917 57.928 788.061 50.056C794.397 42.184 800.157 35.272 805.341 29.32H702.813V5.41599H839.613V27.592ZM877.987 205V5.41599H999.811V29.32H905.923V88.648H989.443V111.976H905.923V181.096H1007.01V205H877.987ZM1140.15 121.48C1143.22 125.32 1147.06 130.408 1151.67 136.744C1156.47 142.888 1161.37 149.8 1166.36 157.48C1171.35 164.968 1176.25 172.84 1181.05 181.096C1186.04 189.352 1190.26 197.32 1193.72 205H1163.19C1159.35 197.704 1155.13 190.312 1150.52 182.824C1146.1 175.336 1141.59 168.232 1136.98 161.512C1132.37 154.6 1127.77 148.168 1123.16 142.216C1118.74 136.264 1114.71 131.08 1111.06 126.664C1108.57 126.856 1105.97 126.952 1103.29 126.952C1100.79 126.952 1098.2 126.952 1095.51 126.952H1070.45V205H1042.52V8.29599C1050.39 6.37599 1059.13 5.12799 1068.73 4.55199C1078.52 3.78399 1087.45 3.39999 1095.51 3.39999C1123.54 3.39999 1144.85 8.67999 1159.45 19.24C1174.23 29.8 1181.62 45.544 1181.62 66.472C1181.62 79.72 1178.07 91.048 1170.97 100.456C1164.05 109.864 1153.78 116.872 1140.15 121.48ZM1097.81 27.88C1085.91 27.88 1076.79 28.168 1070.45 28.744V103.912H1090.33C1099.93 103.912 1108.57 103.432 1116.25 102.472C1123.93 101.512 1130.36 99.688 1135.54 97C1140.92 94.312 1145.05 90.568 1147.93 85.768C1150.81 80.776 1152.25 74.248 1152.25 66.184C1152.25 58.696 1150.81 52.456 1147.93 47.464C1145.05 42.472 1141.11 38.536 1136.12 35.656C1131.32 32.776 1125.56 30.76 1118.84 29.608C1112.31 28.456 1105.3 27.88 1097.81 27.88ZM1212.49 105.064C1212.49 87.976 1214.98 72.904 1219.97 59.848C1225.16 46.792 1232.07 35.944 1240.71 27.304C1249.54 18.472 1259.72 11.848 1271.24 7.43199C1282.95 3.01599 1295.33 0.807985 1308.39 0.807985C1321.25 0.807985 1333.35 3.01599 1344.68 7.43199C1356.2 11.848 1366.28 18.472 1374.92 27.304C1383.56 35.944 1390.37 46.792 1395.37 59.848C1400.55 72.904 1403.14 87.976 1403.14 105.064C1403.14 122.152 1400.55 137.224 1395.37 150.28C1390.37 163.336 1383.56 174.28 1374.92 183.112C1366.28 191.752 1356.2 198.28 1344.68 202.696C1333.35 207.112 1321.25 209.32 1308.39 209.32C1295.33 209.32 1282.95 207.112 1271.24 202.696C1259.72 198.28 1249.54 191.752 1240.71 183.112C1232.07 174.28 1225.16 163.336 1219.97 150.28C1214.98 137.224 1212.49 122.152 1212.49 105.064ZM1241.86 105.064C1241.86 117.16 1243.4 128.2 1246.47 138.184C1249.54 147.976 1253.86 156.328 1259.43 163.24C1265.19 170.152 1272.1 175.528 1280.17 179.368C1288.42 183.016 1297.64 184.84 1307.81 184.84C1317.99 184.84 1327.11 183.016 1335.17 179.368C1343.24 175.528 1350.05 170.152 1355.62 163.24C1361.38 156.328 1365.8 147.976 1368.87 138.184C1371.94 128.2 1373.48 117.16 1373.48 105.064C1373.48 92.968 1371.94 82.024 1368.87 72.232C1365.8 62.248 1361.38 53.8 1355.62 46.888C1350.05 39.976 1343.24 34.696 1335.17 31.048C1327.11 27.208 1317.99 25.288 1307.81 25.288C1297.64 25.288 1288.42 27.208 1280.17 31.048C1272.1 34.696 1265.19 39.976 1259.43 46.888C1253.86 53.8 1249.54 62.248 1246.47 72.232C1243.4 82.024 1241.86 92.968 1241.86 105.064Z" fill="black"/>
</svg>
