<svg width="794" height="106" viewBox="0 0 794 106" fill="none" xmlns="http://www.w3.org/2000/svg">
<path d="M77.336 103C76.28 99.544 75.08 95.992 73.736 92.344C72.488 88.696 71.24 85.048 69.992 81.4H31.112C29.864 85.048 28.568 88.696 27.224 92.344C25.976 95.992 24.824 99.544 23.768 103H0.44C4.184 92.248 7.736 82.312 11.096 73.192C14.456 64.072 17.72 55.48 20.888 47.416C24.152 39.352 27.32 31.72 30.392 24.52C33.56 17.224 36.824 10.12 40.184 3.208H61.64C64.904 10.12 68.12 17.224 71.288 24.52C74.456 31.72 77.624 39.352 80.792 47.416C84.056 55.48 87.368 64.072 90.728 73.192C94.088 82.312 97.64 92.248 101.384 103H77.336ZM50.408 25.816C49.928 27.256 49.208 29.224 48.248 31.72C47.288 34.216 46.184 37.096 44.936 40.36C43.688 43.624 42.296 47.224 40.76 51.16C39.32 55.096 37.832 59.224 36.296 63.544H64.664C63.128 59.224 61.64 55.096 60.2 51.16C58.76 47.224 57.368 43.624 56.024 40.36C54.776 37.096 53.672 34.216 52.712 31.72C51.752 29.224 50.984 27.256 50.408 25.816ZM143.533 2.05599C158.509 2.05599 169.981 4.74399 177.949 10.12C185.917 15.4 189.901 23.656 189.901 34.888C189.901 41.896 188.269 47.608 185.005 52.024C181.837 56.344 177.229 59.752 171.181 62.248C173.197 64.744 175.309 67.624 177.517 70.888C179.725 74.056 181.885 77.416 183.997 80.968C186.205 84.424 188.317 88.072 190.333 91.912C192.349 95.656 194.221 99.352 195.949 103H170.749C168.925 99.736 167.053 96.424 165.133 93.064C163.309 89.704 161.389 86.44 159.373 83.272C157.453 80.104 155.533 77.128 153.613 74.344C151.693 71.464 149.773 68.872 147.853 66.568H136.765V103H114.301V4.648C119.197 3.688 124.237 3.016 129.421 2.632C134.701 2.248 139.405 2.05599 143.533 2.05599ZM144.829 21.208C143.197 21.208 141.709 21.256 140.365 21.352C139.117 21.448 137.917 21.544 136.765 21.64V48.712H143.101C151.549 48.712 157.597 47.656 161.245 45.544C164.893 43.432 166.717 39.832 166.717 34.744C166.717 29.848 164.845 26.392 161.101 24.376C157.453 22.264 152.029 21.208 144.829 21.208ZM256.489 20.488C246.025 20.488 238.441 23.416 233.737 29.272C229.129 35.032 226.825 42.952 226.825 53.032C226.825 57.928 227.401 62.392 228.553 66.424C229.705 70.36 231.433 73.768 233.737 76.648C236.041 79.528 238.921 81.784 242.377 83.416C245.833 84.952 249.865 85.72 254.473 85.72C256.969 85.72 259.081 85.672 260.809 85.576C262.633 85.48 264.217 85.288 265.561 85V50.296H288.025V99.688C285.337 100.744 281.017 101.848 275.065 103C269.113 104.248 261.769 104.872 253.033 104.872C245.545 104.872 238.729 103.72 232.585 101.416C226.537 99.112 221.353 95.752 217.033 91.336C212.713 86.92 209.353 81.496 206.953 75.064C204.649 68.632 203.497 61.288 203.497 53.032C203.497 44.68 204.793 37.288 207.385 30.856C209.977 24.424 213.529 19 218.041 14.584C222.553 10.072 227.833 6.664 233.881 4.35999C240.025 2.05599 246.553 0.903993 253.465 0.903993C258.169 0.903993 262.393 1.23999 266.137 1.912C269.977 2.488 273.241 3.20799 275.929 4.07199C278.713 4.84 280.969 5.656 282.697 6.52C284.521 7.384 285.817 8.056 286.585 8.536L280.105 26.536C277.033 24.904 273.481 23.512 269.449 22.36C265.513 21.112 261.193 20.488 256.489 20.488ZM327.79 53.032C327.79 57.928 328.366 62.344 329.518 66.28C330.766 70.216 332.494 73.624 334.702 76.504C337.006 79.288 339.79 81.448 343.054 82.984C346.318 84.52 350.062 85.288 354.286 85.288C358.414 85.288 362.11 84.52 365.374 82.984C368.734 81.448 371.518 79.288 373.726 76.504C376.03 73.624 377.758 70.216 378.91 66.28C380.158 62.344 380.782 57.928 380.782 53.032C380.782 48.136 380.158 43.72 378.91 39.784C377.758 35.752 376.03 32.344 373.726 29.56C371.518 26.68 368.734 24.472 365.374 22.936C362.11 21.4 358.414 20.632 354.286 20.632C350.062 20.632 346.318 21.448 343.054 23.08C339.79 24.616 337.006 26.824 334.702 29.704C332.494 32.488 330.766 35.896 329.518 39.928C328.366 43.864 327.79 48.232 327.79 53.032ZM403.966 53.032C403.966 61.576 402.67 69.112 400.078 75.64C397.582 82.072 394.126 87.496 389.71 91.912C385.294 96.232 380.014 99.496 373.87 101.704C367.822 103.912 361.294 105.016 354.286 105.016C347.47 105.016 341.038 103.912 334.99 101.704C328.942 99.496 323.662 96.232 319.15 91.912C314.638 87.496 311.086 82.072 308.494 75.64C305.902 69.112 304.606 61.576 304.606 53.032C304.606 44.488 305.95 37 308.638 30.568C311.326 24.04 314.926 18.568 319.438 14.152C324.046 9.73599 329.326 6.42399 335.278 4.21599C341.326 2.00799 347.662 0.903993 354.286 0.903993C361.102 0.903993 367.534 2.00799 373.582 4.21599C379.63 6.42399 384.91 9.73599 389.422 14.152C393.934 18.568 397.486 24.04 400.078 30.568C402.67 37 403.966 44.488 403.966 53.032ZM449.908 85.864C453.076 85.864 455.668 85.624 457.684 85.144C459.796 84.568 461.476 83.848 462.724 82.984C463.972 82.024 464.836 80.92 465.316 79.672C465.796 78.424 466.036 77.032 466.036 75.496C466.036 72.232 464.5 69.544 461.428 67.432C458.356 65.224 453.076 62.872 445.588 60.376C442.324 59.224 439.06 57.928 435.796 56.488C432.532 54.952 429.604 53.08 427.012 50.872C424.42 48.568 422.308 45.832 420.676 42.664C419.044 39.4 418.228 35.464 418.228 30.856C418.228 26.248 419.092 22.12 420.82 18.472C422.548 14.728 424.996 11.56 428.164 8.96799C431.332 6.376 435.172 4.408 439.684 3.064C444.196 1.62399 449.284 0.903993 454.948 0.903993C461.668 0.903993 467.476 1.62399 472.372 3.064C477.268 4.504 481.3 6.088 484.468 7.816L477.988 25.528C475.204 24.088 472.084 22.84 468.628 21.784C465.268 20.632 461.188 20.056 456.388 20.056C451.012 20.056 447.124 20.824 444.724 22.36C442.42 23.8 441.268 26.056 441.268 29.128C441.268 30.952 441.7 32.488 442.564 33.736C443.428 34.984 444.628 36.136 446.164 37.192C447.796 38.152 449.62 39.064 451.636 39.928C453.748 40.696 456.052 41.512 458.548 42.376C463.732 44.296 468.244 46.216 472.084 48.136C475.924 49.96 479.092 52.12 481.588 54.616C484.18 57.112 486.1 60.04 487.348 63.4C488.596 66.76 489.22 70.84 489.22 75.64C489.22 84.952 485.956 92.2 479.428 97.384C472.9 102.472 463.06 105.016 449.908 105.016C445.492 105.016 441.508 104.728 437.956 104.152C434.404 103.672 431.236 103.048 428.452 102.28C425.764 101.512 423.412 100.696 421.396 99.832C419.476 98.968 417.844 98.152 416.5 97.384L422.836 79.528C425.812 81.16 429.46 82.648 433.78 83.992C438.196 85.24 443.572 85.864 449.908 85.864ZM552.008 105.016C535.784 105.016 523.4 100.504 514.856 91.48C506.408 82.456 502.184 69.64 502.184 53.032C502.184 44.776 503.48 37.432 506.072 31C508.664 24.472 512.216 19 516.728 14.584C521.24 10.072 526.616 6.664 532.856 4.35999C539.096 2.05599 545.864 0.903993 553.16 0.903993C557.384 0.903993 561.224 1.23999 564.68 1.912C568.136 2.488 571.16 3.20799 573.752 4.07199C576.344 4.84 578.504 5.656 580.232 6.52C581.96 7.384 583.208 8.056 583.976 8.536L577.496 26.68C574.424 25.048 570.824 23.656 566.696 22.504C562.664 21.352 558.056 20.776 552.872 20.776C549.416 20.776 546.008 21.352 542.648 22.504C539.384 23.656 536.456 25.528 533.864 28.12C531.368 30.616 529.352 33.88 527.816 37.912C526.28 41.944 525.512 46.84 525.512 52.6C525.512 57.208 525.992 61.528 526.952 65.56C528.008 69.496 529.64 72.904 531.848 75.784C534.152 78.664 537.128 80.968 540.776 82.696C544.424 84.328 548.84 85.144 554.024 85.144C557.288 85.144 560.216 84.952 562.808 84.568C565.4 84.184 567.704 83.752 569.72 83.272C571.736 82.696 573.512 82.072 575.048 81.4C576.584 80.728 577.976 80.104 579.224 79.528L585.416 97.528C582.248 99.448 577.784 101.176 572.024 102.712C566.264 104.248 559.592 105.016 552.008 105.016ZM670.774 103C669.718 99.544 668.518 95.992 667.174 92.344C665.926 88.696 664.678 85.048 663.43 81.4H624.55C623.302 85.048 622.006 88.696 620.662 92.344C619.414 95.992 618.262 99.544 617.206 103H593.878C597.622 92.248 601.174 82.312 604.534 73.192C607.894 64.072 611.158 55.48 614.326 47.416C617.59 39.352 620.758 31.72 623.83 24.52C626.998 17.224 630.262 10.12 633.622 3.208H655.078C658.342 10.12 661.558 17.224 664.726 24.52C667.894 31.72 671.062 39.352 674.23 47.416C677.494 55.48 680.806 64.072 684.166 73.192C687.526 82.312 691.078 92.248 694.822 103H670.774ZM643.846 25.816C643.366 27.256 642.646 29.224 641.686 31.72C640.726 34.216 639.622 37.096 638.374 40.36C637.126 43.624 635.734 47.224 634.198 51.16C632.758 55.096 631.27 59.224 629.734 63.544H658.102C656.566 59.224 655.078 55.096 653.638 51.16C652.198 47.224 650.806 43.624 649.462 40.36C648.214 37.096 647.11 34.216 646.15 31.72C645.19 29.224 644.422 27.256 643.846 25.816ZM774.699 103C768.267 91.576 761.307 80.296 753.819 69.16C746.331 58.024 738.363 47.512 729.915 37.624V103H707.739V3.208H726.027C729.195 6.376 732.699 10.264 736.539 14.872C740.379 19.48 744.267 24.424 748.203 29.704C752.235 34.888 756.219 40.312 760.155 45.976C764.091 51.544 767.787 56.92 771.243 62.104V3.208H793.563V103H774.699Z" fill="black"/>
</svg>
